<svg xmlns="http://www.w3.org/2000/svg" viewBox="0 0 260 60" fill="none">
  <!-- flame -->
  <path d="M28 4 C27 7 25 9 25 12 C25 15 27 17 28 17 C29 17 31 15 31 12 C31 9 29 7 28 4Z
           M28 4 C30 6 33 9 32 13 C31.5 15 30 17 28 17" fill="white"/>
  <path d="M26 6 C24.5 9 23.5 11 24 14 C24.3 16 25.5 17.5 27 18
           M30 6 C31.5 9 32.5 11 32 14 C31.7 16 30.5 17.5 29 18" stroke="white" strokeWidth="0" fill="none"/>
  <!-- stacked book pages, widening downward -->
  <path d="M20 20 Q28 18 36 20 L35 23 Q28 21 21 23 Z" fill="white" opacity="1"/>
  <path d="M18 24 Q28 22 38 24 L37 27 Q28 25 19 27 Z" fill="white" opacity="0.95"/>
  <path d="M16 28 Q28 26 40 28 L39 31 Q28 29 17 31 Z" fill="white" opacity="0.9"/>
  <path d="M14 32 Q28 30 42 32 L41 35 Q28 33 15 35 Z" fill="white" opacity="0.85"/>
  <path d="M12 36 Q28 34 44 36 L43 39 Q28 37 13 39 Z" fill="white" opacity="0.8"/>
  <!-- base line -->
  <path d="M11 40 Q28 38 45 40 L44 43 Q28 41 12 43 Z" fill="white" opacity="0.75"/>

  <!-- wordmark -->
  <text
    x="58"
    y="40"
    font-family="'Inter', 'Segoe UI', Arial, sans-serif"
    font-size="26"
    font-weight="600"
    letter-spacing="2"
    fill="white"
  >SAMATOR</text>
</svg>
